# This file uses centimeters as units for non-parametric coordinates.

mtllib CampusPoliceCntrlPlant.mtl
g default
v -10117.259766 7178.174805 -35972.359375
v -9959.842773 7179.620117 -36190.707031
v -9892.359375 8976.004883 -36130.164063
v -10049.777344 8974.559570 -35911.816406
v -11853.984375 7257.200195 -36381.343750
v -11743.796875 7244.794434 -36136.062500
v -11676.313477 9041.179688 -36075.519531
v -11786.501953 9053.584961 -36320.800781
v -10378.148438 7242.367676 -37586.257813
v -10160.029297 7228.876953 -37429.097656
v -9990.084961 7215.471680 -37220.777344
v -9879.897461 7203.065918 -36975.496094
v -9836.974609 7192.504883 -36709.968750
v -9864.242188 7184.507813 -36442.292969
v -10325.767578 7180.270508 -35802.128906
v -10571.154297 7185.764160 -35691.613281
v -10836.698242 7194.281250 -35648.351563
v -11104.303711 7205.241699 -35675.285156
v -11355.733398 7217.898926 -35770.578125
v -11573.852539 7231.389648 -35927.742188
v -11896.907227 7267.761719 -36646.871094
v -11869.638672 7275.758789 -36914.546875
v -11774.039063 7280.646484 -37166.132813
v -11616.621094 7282.091797 -37384.480469
v -11408.114258 7279.996094 -37554.710938
v -11162.727539 7274.502441 -37665.222656
v -10897.183594 7265.984863 -37708.488281
v -10629.578125 7255.024414 -37681.554688
v -11802.156250 9072.143555 -36854.003906
v -11706.555664 9077.031250 -37105.589844
v -9769.491211 8988.889648 -36649.425781
v -9796.759766 8980.892578 -36381.750000
v -10092.545898 9025.261719 -37368.554688
v -9922.601563 9011.856445 -37160.234375
v -11036.821289 9001.626953 -35614.742188
v -11288.250000 9014.283203 -35710.035156
v -10503.670898 8982.148438 -35631.070313
v -10769.215820 8990.666016 -35587.808594
v -11340.631836 9076.380859 -37494.167969
v -11095.244141 9070.887695 -37604.679688
v -11549.138672 9078.476563 -37323.937500
v -11506.369141 9027.774414 -35867.199219
v -11829.423828 9064.146484 -36586.328125
v -10310.665039 9038.752930 -37525.714844
v -9812.414063 8999.451172 -36914.953125
v -10258.284180 8976.655273 -35741.585938
v -10829.700195 9062.370117 -37647.945313
v -10562.094727 9051.409180 -37621.011719
v -18360.472656 8632.814453 -35853.742188
v -19070.648438 8592.962891 -33879.710938
v -17145.312500 8497.357422 -33188.984375
v -17526.591797 8476.045898 -32131.683594
v -20518.156250 8624.603516 -33205.054688
v -19427.539063 8685.802734 -36236.562500
v -17178.888672 7603.591309 -33219.105469
v -17560.167969 7582.280762 -32161.808594
v -15541.177734 8782.730469 -32606.896484
v -15594.362305 7366.946289 -32654.613281
v -17756.890625 9030.240234 -37481.148438
v -17810.076172 7614.455078 -37528.859375
v -14294.541016 7439.884277 -36267.632813
v -14241.354492 8855.669922 -36219.917969
v -19461.115234 7792.036621 -36266.683594
v -18394.044922 7739.048340 -35883.867188
v -19056.962891 8957.288086 -33867.433594
v -20551.730469 7730.837402 -33235.179688
v -19104.523438 7699.181152 -33909.000000
v -19110.449219 7541.486328 -33914.312500
v -10799.459961 9026.518555 -36617.878906
vt 0.683713 0.152804
vt 0.709262 0.152802
vt 0.709261 0.323461
vt 0.683731 0.323463
vt 0.734812 0.152804
vt 0.734792 0.323463
vt 0.760361 0.152810
vt 0.760323 0.323471
vt 0.785909 0.152821
vt 0.785855 0.323483
vt 0.811455 0.152836
vt 0.811389 0.323499
vt 0.836999 0.152855
vt 0.836925 0.323518
vt 0.479345 0.152938
vt 0.504884 0.152916
vt 0.504999 0.323571
vt 0.479459 0.323595
vt 0.530426 0.152892
vt 0.530538 0.323547
vt 0.453806 0.152958
vt 0.453917 0.323616
vt 0.428269 0.152974
vt 0.428375 0.323633
vt 0.402730 0.152986
vt 0.402833 0.323647
vt 0.377191 0.152997
vt 0.377293 0.323658
vt 0.853826 0.604741
vt 0.891266 0.695129
vt 0.831708 0.617511
vt 0.878496 0.598131
vt 0.813649 0.635571
vt 0.904036 0.598131
vt 0.800879 0.657689
vt 0.928706 0.604741
vt 0.794268 0.682359
vt 0.950824 0.617511
vt 0.794269 0.707899
vt 0.968884 0.635571
vt 0.800879 0.732569
vt 0.981654 0.657689
vt 0.813649 0.754687
vt 0.988264 0.682359
vt 0.831708 0.772746
vt 0.988264 0.707899
vt 0.853827 0.785516
vt 0.981654 0.732568
vt 0.878496 0.792126
vt 0.968884 0.754687
vt 0.904036 0.792126
vt 0.950824 0.772746
vt 0.928706 0.785516
vt 0.555970 0.152868
vt 0.581516 0.152846
vt 0.581607 0.323502
vt 0.556074 0.323523
vt 0.607064 0.152828
vt 0.607139 0.323485
vt 0.632613 0.152815
vt 0.632670 0.323473
vt 0.658163 0.152807
vt 0.658200 0.323466
vt 0.939156 0.152917
vt 0.964695 0.152925
vt 0.964628 0.323582
vt 0.939087 0.323575
vt 0.990234 0.152932
vt 0.990168 0.323589
vt 0.913618 0.152906
vt 0.913545 0.323565
vt 0.888080 0.152892
vt 0.888003 0.323552
vt 0.862540 0.152874
vt 0.862463 0.323536
vt 0.831745 0.602028
vt 0.725085 0.602050
vt 0.725067 0.517141
vt 0.831727 0.517119
vt 0.728922 0.144362
vt 0.364531 0.144362
vt 0.364543 0.009876
vt 0.728914 0.009864
vt 0.423197 0.602114
vt 0.117464 0.602181
vt 0.117445 0.517272
vt 0.423179 0.517205
vt 0.377194 0.332098
vt 0.741723 0.332098
vt 0.009847 0.024746
vt 0.542557 0.347079
vt 0.542561 0.431993
vt 0.377191 0.466592
vt 0.741646 0.432011
vt 0.009774 0.144387
vt 0.530896 0.708744
vt 0.725185 0.708710
vt 0.530931 0.907829
vt 0.423251 0.907848
vt 0.364663 0.508728
vt 0.009896 0.508852
vt 0.364545 0.745121
vt 0.009786 0.745121
vt 0.009766 0.610646
vt 0.364524 0.610593
vt 0.009784 0.602204
vt 0.009766 0.517295
vt 0.204093 0.024809
vt 0.204054 0.109754
vt 0.741724 0.347079
vt 0.009863 0.009766
vt 0.741639 0.466621
vt 0.009766 0.109777
vn 0.727040 -0.050390 0.684743
vn 0.879705 -0.048988 0.472990
vn 0.727044 -0.050389 0.684739
vn 0.879712 -0.048987 0.472976
vn -0.957239 0.026250 0.288104
vn -0.850375 0.014219 0.525986
vn -0.957240 0.026249 0.288102
vn -0.850381 0.014218 0.525976
vn -0.879707 0.048988 -0.472986
vn -0.972420 0.044249 -0.229002
vn -0.879712 0.048987 -0.472978
vn -0.972421 0.044248 -0.228997
vn 0.972419 -0.044249 0.229003
vn 0.998865 -0.036491 -0.030597
vn 0.972421 -0.044248 0.228995
vn 0.998865 -0.036493 -0.030596
vn 0.850377 -0.014218 -0.525982
vn 0.685549 -0.001218 -0.728026
vn 0.850383 -0.014218 -0.525973
vn 0.685569 -0.001218 -0.728006
vn -0.474010 -0.011865 0.880440
vn -0.230181 -0.024140 0.972848
vn -0.474040 -0.011865 0.880423
vn -0.230197 -0.024140 0.972845
vn 0.029331 -0.034769 0.998965
vn 0.286867 -0.043030 0.957004
vn 0.029319 -0.034770 0.998965
vn 0.286862 -0.043030 0.957005
vn -0.286867 0.043029 -0.957004
vn -0.524826 0.048357 -0.849835
vn -0.286863 0.043030 -0.957005
vn -0.524824 0.048358 -0.849836
vn -0.727043 0.050389 -0.684740
vn -0.727040 0.050390 -0.684744
vn -0.685553 0.001218 0.728022
vn -0.685584 0.001218 0.727993
vn -0.998866 0.036493 0.030596
vn -0.998866 0.036492 0.030596
vn 0.957241 -0.026249 -0.288100
vn 0.957239 -0.026250 -0.288105
vn 0.474014 0.011865 -0.880437
vn 0.474031 0.011865 -0.880428
vn 0.524831 -0.048358 0.849832
vn 0.524833 -0.048357 0.849831
vn -0.029346 0.034770 -0.998964
vn -0.029321 0.034770 -0.998965
vn 0.230190 0.024140 -0.972846
vn 0.230220 0.024140 -0.972839
vn 0.037519 0.998729 0.033663
vn 0.037518 0.998729 0.033660
vn 0.037518 0.998729 0.033660
vn 0.037519 0.998729 0.033660
vn 0.037518 0.998729 0.033661
vn 0.037519 0.998729 0.033660
vn 0.037518 0.998729 0.033662
vn 0.939977 -0.046705 0.338028
vn 0.939976 -0.046702 0.338029
vn 0.939976 -0.046703 0.338028
vn 0.939976 -0.046700 0.338029
vn 0.338460 0.018990 -0.940789
vn 0.338460 0.018991 -0.940789
vn 0.338460 0.018990 -0.940789
vn 0.338460 0.018992 -0.940789
vn 0.338467 0.018991 -0.940787
vn 0.338459 0.018994 -0.940789
vn 0.338461 0.018993 -0.940789
vn 0.338454 0.018996 -0.940791
vn 0.940233 -0.046689 0.337317
vn 0.940233 -0.046688 0.337316
vn 0.940233 -0.046689 0.337316
vn 0.940233 -0.046688 0.337316
vn 0.037519 0.998729 0.033659
vn 0.037518 0.998729 0.033660
vn 0.037518 0.998729 0.033660
vn 0.037518 0.998729 0.033660
vn -0.940233 0.046690 -0.337316
vn -0.940233 0.046688 -0.337316
vn -0.940233 0.046690 -0.337316
vn -0.940233 0.046688 -0.337316
vn -0.338494 -0.018994 0.940777
vn -0.338494 -0.018994 0.940777
vn -0.338494 -0.018994 0.940777
vn -0.338495 -0.018994 0.940777
vn -0.940233 0.046687 -0.337317
vn -0.940234 0.046679 -0.337314
vn -0.940233 0.046682 -0.337316
vn -0.940234 0.046680 -0.337314
vn -0.338051 -0.019003 0.940936
vn -0.338051 -0.019003 0.940936
vn -0.338054 -0.019010 0.940935
vn -0.338054 -0.019013 0.940935
vn -0.338068 -0.018923 0.940932
vn -0.338154 -0.018441 0.940910
vn -0.940233 0.046688 -0.337318
vn -0.940233 0.046695 -0.337316
vn -0.940234 0.046677 -0.337314
vn -0.940234 0.046682 -0.337315
vn 0.037519 0.998729 0.033659
vn 0.037519 0.998729 0.033660
vn -0.338455 -0.018988 0.940791
vn -0.338413 -0.018785 0.940810
vn 0.037520 0.998729 0.033659
vn 0.037518 0.998729 0.033658
vn 0.037517 0.998729 0.033659
vn 0.037519 0.998729 0.033660
vn 0.037518 0.998729 0.033662
vn 0.037518 0.998729 0.033659
vn 0.037518 0.998729 0.033657
vn 0.037517 0.998729 0.033659
vn 0.037518 0.998729 0.033661
vn 0.037518 0.998729 0.033661
vn 0.037517 0.998729 0.033655
vn 0.037518 0.998729 0.033659
vn 0.037518 0.998729 0.033660
vn 0.037519 0.998729 0.033661
vn 0.037518 0.998729 0.033662
vn 0.037518 0.998729 0.033659
vn 0.037519 0.998729 0.033660
vn 0.037518 0.998729 0.033659
vn 0.037518 0.998729 0.033660
vn 0.037519 0.998729 0.033659
vn 0.037518 0.998729 0.033659
vn 0.037519 0.998729 0.033663
s 1
g SM_CntrlPlant
usemtl R:M_Gray_SG
f 1/1/1 2/2/2 4/4/3
f 4/4/3 2/2/2 3/3/4
f 5/15/5 6/16/6 8/18/7
f 8/18/7 6/16/6 7/17/8
f 23/25/9 22/23/10 30/26/11
f 30/26/11 22/23/10 29/24/12
f 14/5/13 13/7/14 32/6/15
f 32/6/15 13/7/14 31/8/16
f 11/11/17 10/13/18 34/12/19
f 34/12/19 10/13/18 33/14/20
f 19/54/21 18/55/22 36/57/23
f 36/57/23 18/55/22 35/56/24
f 17/58/25 16/60/26 38/59/27
f 38/59/27 16/60/26 37/61/28
f 26/64/29 25/65/30 40/67/31
f 40/67/31 25/65/30 39/66/32
f 24/27/33 23/25/9 41/28/34
f 41/28/34 23/25/9 30/26/11
f 20/19/35 19/54/21 42/20/36
f 42/20/36 19/54/21 36/57/23
f 21/21/37 5/15/5 43/22/38
f 43/22/38 5/15/5 8/18/7
f 18/55/22 17/58/25 35/56/24
f 35/56/24 17/58/25 38/59/27
f 12/9/39 11/11/17 45/10/40
f 45/10/40 11/11/17 34/12/19
f 10/13/18 9/74/41 33/14/20
f 33/14/20 9/74/41 44/75/42
f 15/62/43 1/1/1 46/63/44
f 46/63/44 1/1/1 4/4/3
f 27/70/45 26/64/29 47/71/46
f 47/71/46 26/64/29 40/67/31
f 9/74/41 28/72/47 44/75/42
f 44/75/42 28/72/47 48/73/48
f 22/23/10 21/21/37 29/24/12
f 29/24/12 21/21/37 43/22/38
f 13/7/14 12/9/39 31/8/16
f 31/8/16 12/9/39 45/10/40
f 25/65/30 24/68/33 39/66/32
f 39/66/32 24/68/33 41/69/34
f 2/2/2 14/5/13 3/3/4
f 3/3/4 14/5/13 32/6/15
f 6/16/6 20/19/35 7/17/8
f 7/17/8 20/19/35 42/20/36
s 9
usemtl R:M_BrownLight_SG
f 42/29/49 69/30/50 7/31/51
s 1
usemtl R:M_Gray_SG
f 16/60/26 15/62/43 37/61/28
f 37/61/28 15/62/43 46/63/44
f 28/72/47 27/70/45 48/73/48
f 48/73/48 27/70/45 47/71/46
s 10
usemtl R:M_BrownLight_SG
f 53/84/52 52/77/53 50/96/54
f 50/96/54 52/77/53 51/97/55
s 11
usemtl R:M_Red_SG
f 51/76/56 52/77/57 55/79/58
f 55/79/58 52/77/57 56/78/59
s 12
f 59/102/60 62/103/61 60/105/62
f 60/105/62 62/103/61 61/104/63
s 13
f 54/85/64 49/106/65 63/86/66
f 63/86/66 49/106/65 64/107/67
s 14
f 62/80/68 57/81/69 61/83/70
f 61/83/70 57/81/69 58/82/71
s 15
usemtl R:M_BrownLight_SG
f 65/95/72 57/81/73 59/101/74
f 59/101/74 57/81/73 62/100/75
s 16
usemtl R:M_Red_SG
f 53/84/76 54/85/77 66/87/78
f 66/87/78 54/85/77 63/86/79
s 17
f 52/77/80 53/84/81 56/78/82
f 56/78/82 53/84/81 66/87/83
s 18
f 60/88/84 68/89/85 64/91/86
f 64/91/86 68/89/85 67/110/87
s 19
f 67/90/88 68/111/89 55/108/90
f 55/108/90 68/111/89 58/82/91
f 57/81/92 51/109/93 58/82/91
f 58/82/91 51/109/93 55/108/90
s 18
f 59/93/94 60/88/84 49/92/95
f 49/92/95 60/88/84 64/91/86
f 50/94/96 65/112/97 49/92/95
f 49/92/95 65/112/97 59/93/94
s 10
usemtl R:M_BrownLight_SG
f 49/98/98 54/99/99 50/96/54
f 50/96/54 54/99/99 53/84/52
s 19
usemtl R:M_Red_SG
f 50/113/100 51/109/93 65/95/101
f 65/95/101 51/109/93 57/81/92
s 9
usemtl R:M_BrownLight_SG
f 33/53/102 44/51/103 69/30/50
f 69/30/50 44/51/103 48/49/104
f 69/30/50 48/49/104 47/47/105
f 69/30/50 47/47/105 40/45/106
f 69/30/50 40/45/106 39/43/107
f 69/30/50 39/43/107 41/41/108
f 69/30/50 41/41/108 30/39/109
f 69/30/50 30/39/109 29/37/110
f 69/30/50 29/37/110 43/35/111
f 69/30/50 43/35/111 8/33/112
f 69/30/50 8/33/112 7/31/51
f 36/32/113 69/30/50 42/29/49
f 35/34/114 69/30/50 36/32/113
f 38/36/115 69/30/50 35/34/114
f 37/38/116 69/30/50 38/36/115
f 46/40/117 69/30/50 37/38/116
f 4/42/118 69/30/50 46/40/117
f 3/44/119 69/30/50 4/42/118
f 32/46/120 69/30/50 3/44/119
f 31/48/121 69/30/50 32/46/120
f 45/50/122 69/30/50 31/48/121
f 34/52/123 69/30/50 45/50/122
f 33/53/102 69/30/50 34/52/123
