# This file uses centimeters as units for non-parametric coordinates.

mtllib StudentSuccessCntr.mtl
g default
v 26560.714844 5550.083496 -21025.710938
v 26497.455078 5552.335449 -20853.820313
v 26494.511719 5923.786621 -20859.769531
v 26557.773438 5921.534180 -21031.660156
v 26750.625000 5552.622070 -20956.482422
v 26747.656250 5924.072266 -20962.441406
v 26687.136719 5554.870117 -20784.677734
v 26684.193359 5926.321289 -20790.628906
v 27434.412109 5967.877441 -18567.166016
v 27180.417969 5976.886719 -17879.058594
v 25788.677734 5957.636230 -18392.523438
v 26043.320313 5948.606934 -19082.242188
v 27954.576172 5949.936035 -19944.626953
v 28080.193359 6157.644043 -20292.894531
v 28209.171875 5940.905762 -20634.363281
v 26687.240234 6138.376953 -20806.808594
v 26561.623047 5930.668945 -20458.539063
v 26816.070313 5921.645020 -21147.796875
v 27305.740234 6184.104492 -18226.503906
v 25360.638672 5544.905273 -20750.701172
v 25664.705078 5534.190918 -21570.027344
v 25661.761719 5905.641602 -21575.976563
v 25357.695313 5916.356445 -20756.652344
v 24939.830078 5559.732910 -19616.808594
v 24936.886719 5931.183105 -19622.757813
v 24625.951172 5570.792480 -18771.037109
v 24623.007813 5942.243164 -18776.986328
v 24799.998047 5944.610352 -18716.785156
v 25827.968750 5908.007813 -21510.464844
v 27437.355469 5596.427246 -18561.216797
v 27183.361328 5605.436035 -17873.109375
v 25791.619141 5586.185547 -18386.574219
v 25897.730469 5582.421387 -18674.068359
v 25897.601563 5953.911621 -18678.980469
v 26564.566406 5559.218262 -20452.589844
v 26818.867188 5550.201172 -21141.367188
v 28212.115234 5569.455078 -20628.414063
v 27957.519531 5578.485352 -19938.677734
v 25295.896484 6116.533203 -21712.609375
v 24959.277344 5895.961914 -21832.880859
v 24270.052734 6153.312500 -18908.896484
v 23920.521484 5932.562988 -19033.890625
v 23923.462891 5561.112305 -19027.941406
v 26632.337891 5919.107910 -21215.316406
v 26237.958984 6155.610840 -21366.312500
v 25190.544922 6192.043945 -18573.539063
v 25527.281250 5918.593750 -20700.796875
v 25106.263672 5933.552246 -19558.664063
v 25530.224609 5547.143555 -20694.847656
v 25109.207031 5562.101074 -19552.712891
v 25786.003906 5577.198730 -18944.888672
v 25783.058594 5948.649414 -18950.837891
v 25972.349609 5579.776367 -18876.136719
v 25972.236328 5951.266602 -18881.041016
v 24256.177734 5858.842285 -19936.154297
v 24628.880859 5845.712402 -20940.294922
v 24268.798828 5840.719727 -21073.863281
v 23896.140625 5853.850586 -20069.708984
v 23898.591797 5544.308594 -20064.750000
v 24258.630859 5549.300293 -19931.197266
v 24271.251953 5531.177734 -21068.904297
v 24962.218750 5524.510742 -21826.931641
v 25584.927734 5955.541016 -18422.542969
v 25707.414063 5951.280273 -18749.144531
v 25710.357422 5579.830078 -18743.195313
v 25587.867188 5584.090332 -18416.593750
v 24802.941406 5573.159180 -18710.833984
v 25830.912109 5536.557129 -21504.515625
v 26635.279297 5547.657227 -21209.367188
v 25923.099609 6164.979980 -18736.613281
v 25972.382813 5579.776855 -18876.125000
v 26046.263672 5577.155762 -19076.292969
v 25972.236328 5951.266602 -18881.041016
v 25972.236328 5951.266602 -18881.041016
v 25972.236328 5951.266602 -18881.041016
v 25972.236328 5951.266602 -18881.041016
v 24631.332031 5536.169922 -20935.337891
vt 0.214639 0.061851
vt 0.256369 0.061828
vt 0.235511 0.073886
vt 0.256357 0.040743
vt 0.214627 0.040766
vt 0.857669 0.026435
vt 0.899300 0.026184
vt 0.878557 0.038328
vt 0.899173 0.005100
vt 0.857542 0.005351
vt 0.260941 0.004929
vt 0.310544 0.005032
vt 0.310500 0.026117
vt 0.260898 0.026014
vt 0.564908 0.005563
vt 0.616112 0.005670
vt 0.616068 0.026755
vt 0.564864 0.026648
vt 0.773345 0.005858
vt 0.773472 0.026942
vt 0.756078 0.027048
vt 0.755951 0.005963
vt 0.752725 0.039091
vt 0.743852 0.027118
vt 0.130355 0.040813
vt 0.130367 0.061897
vt 0.110275 0.061908
vt 0.110263 0.040824
vt 0.109508 0.073955
vt 0.099879 0.061914
vt 0.088665 0.061920
vt 0.099868 0.040829
vt 0.088682 0.040836
vt 0.352999 0.005121
vt 0.522453 0.005474
vt 0.522409 0.026559
vt 0.352955 0.026205
vt 0.744616 0.005939
vt 0.744572 0.027024
vt 0.724773 0.026982
vt 0.724817 0.005898
vt 0.973030 0.033201
vt 0.973031 0.050771
vt 0.912238 0.050775
vt 0.912237 0.033205
vt 0.677238 0.005798
vt 0.677194 0.026883
vt 0.626347 0.026777
vt 0.626391 0.005692
vt 0.250807 0.004908
vt 0.250763 0.025992
vt 0.201741 0.025890
vt 0.201785 0.004806
vt 0.153154 0.004704
vt 0.153110 0.025789
vt 0.015840 0.025503
vt 0.015884 0.004418
vt 0.995477 0.004519
vt 0.995605 0.025604
vt 0.983494 0.025677
vt 0.983367 0.004593
vt 0.773765 0.075099
vt 0.767907 0.064498
vt 0.774167 0.050975
vt 0.352658 0.075234
vt 0.352811 0.050044
vt 0.522260 0.051070
vt 0.522112 0.075581
vt 0.214652 0.085944
vt 0.130380 0.085990
vt 0.214665 0.110037
vt 0.130395 0.110059
vt 0.704362 0.107798
vt 0.635935 0.113294
vt 0.635045 0.103053
vt 0.703925 0.097673
vt 0.582064 0.079451
vt 0.750778 0.065436
vt 0.584337 0.106827
vt 0.599520 0.050437
vt 0.611704 0.049425
vt 0.752790 0.093752
vt 0.579789 0.052076
vt 0.610816 0.038014
vt 0.598627 0.038966
vt 0.748503 0.038060
vt 0.973033 0.072567
vt 0.912240 0.072574
vt 0.269924 0.048332
vt 0.269956 0.058728
vt 0.258485 0.058716
vt 0.258465 0.048320
vt 0.857814 0.050471
vt 0.857958 0.074506
vt 0.269943 0.079813
vt 0.258470 0.079801
vt 0.258495 0.027235
vt 0.269954 0.027248
vt 0.004395 0.061846
vt 0.004413 0.040762
vt 0.332483 0.038418
vt 0.543611 0.038859
vt 0.176870 0.039575
vt 0.004610 0.004395
vt 0.004395 0.025479
vt 0.994826 0.033199
vt 0.994827 0.050770
vt 0.890439 0.033206
vt 0.890440 0.050777
vt 0.700955 0.040668
vn 0.342605 -0.012333 -0.939399
vn 0.342607 -0.012332 -0.939398
vn 0.342609 -0.012332 -0.939397
vn 0.342609 -0.012332 -0.939397
vn 0.342607 -0.012332 -0.939398
vn 0.342611 -0.012332 -0.939396
vn -0.342605 0.012327 0.939399
vn -0.342597 0.012330 0.939401
vn -0.342589 0.012333 0.939405
vn -0.342589 0.012333 0.939405
vn -0.342597 0.012330 0.939401
vn -0.342581 0.012335 0.939407
vn 0.938107 0.012981 0.346103
vn 0.938107 0.012981 0.346103
vn 0.938107 0.012981 0.346103
vn 0.938106 0.012953 0.346105
vn 0.938106 0.012953 0.346105
vn 0.938106 0.012953 0.346105
vn 0.937497 0.013004 0.347750
vn 0.937497 0.012999 0.347752
vn 0.937497 0.013002 0.347751
vn 0.937497 0.013002 0.347751
vn 0.937497 0.012999 0.347752
vn 0.937496 0.012997 0.347752
vn 0.937497 0.013005 0.347749
vn 0.937497 0.012998 0.347750
vn 0.937497 0.013003 0.347749
vn 0.937497 0.013003 0.347749
vn 0.937497 0.012998 0.347750
vn 0.937497 0.012996 0.347750
vn 0.938107 0.012975 0.346103
vn 0.938107 0.012977 0.346104
vn 0.938106 0.012980 0.346104
vn 0.938106 0.012980 0.346104
vn 0.938107 0.012977 0.346104
vn 0.938106 0.012983 0.346104
vn -0.346254 0.012283 0.938060
vn -0.346254 0.012282 0.938060
vn -0.346256 0.012279 0.938060
vn -0.346256 0.012279 0.938060
vn -0.346254 0.012282 0.938060
vn -0.346256 0.012279 0.938060
vn -0.938116 -0.012990 -0.346078
vn -0.936228 -0.008513 -0.351291
vn -0.936642 -0.009485 -0.350161
vn -0.936642 -0.009485 -0.350161
vn -0.936228 -0.008513 -0.351291
vn -0.934716 -0.005009 -0.355360
vn -0.938116 -0.012971 -0.346078
vn -0.938115 -0.012979 -0.346079
vn -0.938116 -0.012979 -0.346079
vn -0.938116 -0.012979 -0.346079
vn -0.938115 -0.012979 -0.346079
vn -0.938115 -0.012986 -0.346080
vn -0.938111 -0.013056 -0.346089
vn -0.938113 -0.013051 -0.346085
vn -0.938112 -0.013054 -0.346087
vn -0.938112 -0.013054 -0.346087
vn -0.938113 -0.013051 -0.346085
vn -0.938113 -0.013049 -0.346082
vn 0.345633 -0.013636 -0.938271
vn 0.345681 -0.013425 -0.938256
vn 0.345890 -0.012496 -0.938192
vn 0.345890 -0.012496 -0.938192
vn 0.345681 -0.013425 -0.938256
vn 0.345937 -0.012285 -0.938177
vn 0.938107 0.012974 0.346103
vn 0.938107 0.012972 0.346104
vn 0.938106 0.012971 0.346105
vn 0.938106 0.012971 0.346105
vn 0.938107 0.012972 0.346104
vn 0.938106 0.012969 0.346106
vn -0.346255 0.012280 0.938060
vn -0.346255 0.012280 0.938060
vn -0.346254 0.012281 0.938061
vn -0.346254 0.012281 0.938061
vn -0.346255 0.012280 0.938060
vn -0.346253 0.012281 0.938061
vn 0.343587 -0.012319 -0.939040
vn 0.343584 -0.012318 -0.939041
vn 0.343588 -0.012317 -0.939040
vn 0.449205 0.879845 0.155202
vn 0.450411 0.879186 0.155439
vn 0.461392 0.873088 0.157594
vn 0.461392 0.873088 0.157594
vn 0.450411 0.879186 0.155439
vn 0.462682 0.872359 0.157846
vn -0.489592 0.850933 -0.190299
vn -0.488289 0.851734 -0.190062
vn -0.476831 0.858662 -0.187970
vn -0.476831 0.858662 -0.187970
vn -0.488289 0.851734 -0.190062
vn -0.475613 0.859386 -0.187746
vn -0.343580 0.012319 0.939043
vn -0.343585 0.012320 0.939041
vn -0.343582 0.012319 0.939042
vn -0.343582 0.012319 0.939042
vn -0.343585 0.012320 0.939041
vn -0.343586 0.012319 0.939040
vn -0.343585 0.012313 0.939041
vn -0.343582 0.012319 0.939042
vn -0.343586 0.012319 0.939040
vn 0.344670 -0.024387 -0.938407
vn 0.344670 -0.024387 -0.938407
vn 0.344670 -0.024387 -0.938407
vn -0.179988 0.872027 0.455163
vn -0.179986 0.872031 0.455156
vn -0.179987 0.872028 0.455162
vn -0.179987 0.872028 0.455162
vn -0.179986 0.872031 0.455156
vn -0.179985 0.872032 0.455155
vn 0.166110 0.859743 -0.482960
vn 0.166387 0.859498 -0.483300
vn 0.166170 0.859690 -0.483033
vn 0.166170 0.859690 -0.483033
vn 0.166387 0.859498 -0.483300
vn 0.166447 0.859445 -0.483373
vn -0.007925 0.999840 -0.016014
vn -0.007924 0.999840 -0.016014
vn -0.007917 0.999840 -0.016015
vn -0.007917 0.999840 -0.016015
vn -0.007924 0.999840 -0.016014
vn -0.007917 0.999840 -0.016015
vn 0.312936 -0.012734 -0.949689
vn 0.312954 -0.012732 -0.949683
vn 0.312943 -0.012733 -0.949687
vn 0.312943 -0.012733 -0.949687
vn 0.312954 -0.012732 -0.949683
vn 0.312961 -0.012731 -0.949681
vn -0.354057 0.012176 0.935145
vn -0.354047 0.012170 0.935148
vn -0.354053 0.012173 0.935146
vn -0.354053 0.012173 0.935146
vn -0.354047 0.012170 0.935148
vn -0.354043 0.012168 0.935150
vn 0.346262 -0.012280 -0.938058
vn 0.346258 -0.012282 -0.938059
vn 0.346260 -0.012281 -0.938058
vn 0.346260 -0.012281 -0.938058
vn 0.346258 -0.012282 -0.938059
vn 0.346256 -0.012282 -0.938060
vn -0.346252 0.012283 0.938061
vn -0.346249 0.012282 0.938062
vn -0.346247 0.012282 0.938063
vn -0.346247 0.012282 0.938063
vn -0.346249 0.012282 0.938062
vn -0.346244 0.012281 0.938064
vn -0.007922 0.999840 -0.016016
vn -0.007922 0.999840 -0.016014
vn -0.007922 0.999840 -0.016016
vn -0.007922 0.999840 -0.016016
vn -0.007922 0.999840 -0.016014
vn -0.007923 0.999840 -0.016014
vn -0.347908 0.012264 0.937448
vn -0.347913 0.012259 0.937447
vn -0.347912 0.012260 0.937447
vn -0.347912 0.012260 0.937447
vn -0.347913 0.012259 0.937447
vn -0.347917 0.012254 0.937445
vn 0.347909 -0.012256 -0.937448
vn 0.347905 -0.012259 -0.937450
vn 0.347906 -0.012259 -0.937449
vn 0.347906 -0.012259 -0.937449
vn 0.347905 -0.012259 -0.937450
vn 0.347902 -0.012261 -0.937451
vn -0.937497 -0.012984 -0.347752
vn -0.937496 -0.012995 -0.347752
vn -0.937497 -0.012985 -0.347752
vn -0.937497 -0.012985 -0.347752
vn -0.937496 -0.012995 -0.347752
vn -0.937496 -0.012996 -0.347752
vn -0.351133 0.012215 0.936246
vn -0.351134 0.012209 0.936246
vn -0.351136 0.012219 0.936245
vn 0.461285 0.872408 0.161621
vn 0.461288 0.872405 0.161622
vn 0.461289 0.872405 0.161623
vn 0.461288 0.872405 0.161622
vn 0.461287 0.872406 0.161623
vn 0.461289 0.872405 0.161623
vn 0.936291 0.013048 0.350982
vn 0.936293 0.013035 0.350978
vn 0.936293 0.013036 0.350978
vn 0.936293 0.013036 0.350978
vn 0.936293 0.013035 0.350978
vn 0.936295 0.013024 0.350973
vn -0.351131 0.012214 0.936247
vn -0.351133 0.012215 0.936246
vn -0.351135 0.012219 0.936245
vn -0.351135 0.012219 0.936245
vn -0.351133 0.012215 0.936246
vn -0.351136 0.012219 0.936245
vn 0.343581 -0.012318 -0.939042
vn 0.343586 -0.012317 -0.939040
vn 0.343584 -0.012318 -0.939041
vn 0.343584 -0.012318 -0.939041
vn 0.343586 -0.012317 -0.939040
vn 0.343588 -0.012317 -0.939040
vn -0.007574 0.999845 -0.015889
vn -0.007571 0.999845 -0.015887
vn -0.007572 0.999845 -0.015887
vn -0.007572 0.999845 -0.015887
vn -0.007571 0.999845 -0.015887
vn -0.007569 0.999845 -0.015885
vn -0.007923 0.999840 -0.016010
vn -0.007924 0.999840 -0.016010
vn -0.007925 0.999840 -0.016010
vn -0.007925 0.999840 -0.016010
vn -0.007924 0.999840 -0.016010
vn -0.007925 0.999840 -0.016010
vn -0.937496 -0.013003 -0.347752
vn -0.937496 -0.013004 -0.347752
vn -0.937496 -0.013006 -0.347752
vn -0.937496 -0.013006 -0.347752
vn -0.937496 -0.013004 -0.347752
vn -0.937496 -0.013007 -0.347752
vn -0.939724 -0.012919 -0.341689
vn -0.939724 -0.012920 -0.341690
vn -0.939723 -0.012921 -0.341691
vn -0.939723 -0.012921 -0.341691
vn -0.939724 -0.012920 -0.341690
vn -0.939723 -0.012922 -0.341692
vn -0.937419 -0.013001 -0.347960
vn -0.937419 -0.013003 -0.347960
vn -0.937419 -0.013006 -0.347960
vn -0.937419 -0.013006 -0.347960
vn -0.937419 -0.013003 -0.347960
vn -0.937419 -0.013007 -0.347960
vn 0.344597 -0.012308 -0.938670
vn 0.344597 -0.012306 -0.938670
vn 0.344597 -0.012302 -0.938670
vn 0.344597 -0.012302 -0.938670
vn 0.344597 -0.012306 -0.938670
vn 0.344597 -0.012300 -0.938670
vn 0.936293 0.013025 0.350979
vn 0.936293 0.013027 0.350979
vn 0.936292 0.013046 0.350981
vn 0.936292 0.013046 0.350981
vn 0.936293 0.013027 0.350979
vn 0.936292 0.013048 0.350981
vn -0.179987 0.872030 0.455158
vn -0.179988 0.872028 0.455161
vn -0.179987 0.872029 0.455159
vn -0.179987 0.872029 0.455159
vn -0.179988 0.872028 0.455161
vn -0.179988 0.872028 0.455162
vn 0.166198 0.860786 -0.481067
vn 0.166211 0.860605 -0.481387
vn 0.166256 0.859933 -0.482570
vn 0.166256 0.859933 -0.482570
vn 0.166211 0.860605 -0.481387
vn 0.166269 0.859745 -0.482900
vn -0.938151 -0.004945 -0.346192
vn -0.941324 -0.010198 -0.337350
vn -0.939741 -0.007555 -0.341804
vn -0.939741 -0.007555 -0.341804
vn -0.941324 -0.010198 -0.337350
vn -0.942860 -0.012807 -0.332942
vn 0.347353 -0.012269 -0.937654
vn 0.347353 -0.012269 -0.937654
vn 0.347353 -0.012266 -0.937654
vn 0.347353 -0.012266 -0.937654
vn 0.347353 -0.012269 -0.937654
vn 0.347353 -0.012266 -0.937654
vn -0.934522 0.015806 -0.355553
vn -0.934522 0.015806 -0.355553
vn -0.934522 0.015806 -0.355553
vn -0.942816 0.008451 -0.333207
vn -0.942816 0.008451 -0.333207
vn -0.942816 0.008451 -0.333207
vn -0.937813 0.018668 -0.346639
vn -0.937813 0.018668 -0.346639
vn -0.937813 0.018668 -0.346639
vn -0.938117 -0.012924 -0.346078
vn -0.938117 -0.012924 -0.346078
vn -0.938117 -0.012924 -0.346078
vn -0.938113 -0.013161 -0.346079
vn -0.938113 -0.013161 -0.346079
vn -0.938113 -0.013161 -0.346079
vn -0.938029 -0.012950 -0.346315
vn -0.938029 -0.012950 -0.346315
vn -0.938029 -0.012950 -0.346315
vn -0.460512 0.868715 -0.182381
vn -0.460512 0.868715 -0.182381
vn -0.460512 0.868715 -0.182381
vn -0.476734 0.859420 -0.184719
vn -0.476734 0.859420 -0.184719
vn -0.476734 0.859420 -0.184719
vn -0.459269 0.869727 -0.180687
vn -0.467374 0.864176 -0.186445
vn -0.464828 0.865936 -0.184635
vn -0.464828 0.865936 -0.184635
vn -0.467374 0.864176 -0.186445
vn -0.467705 0.863946 -0.186680
vn 0.461288 0.872405 0.161622
vn 0.461281 0.872410 0.161616
vn 0.461287 0.872406 0.161623
vn 0.461285 0.872408 0.161621
vn 0.461289 0.872405 0.161623
vn 0.461284 0.872408 0.161620
s off
g SM_Sdsc
usemtl SM_SdscSG
f 5/95/1 1/96/2 6/90/3
f 6/90/4 1/96/5 4/91/6
f 2/97/7 7/98/8 3/92/9
f 3/92/10 7/98/11 8/89/12
usemtl SM_SdscSG1
f 13/1/13 15/2/14 14/3/15
f 10/6/16 9/7/17 19/8/18
usemtl SM_SdscSG
f 20/11/19 21/12/20 23/14/21
f 23/14/22 21/12/23 22/13/24
f 26/15/25 24/16/26 27/18/27
f 27/18/28 24/16/29 25/17/30
f 30/9/31 9/7/32 31/10/33
f 31/10/34 9/7/35 10/6/36
f 31/10/37 10/6/38 32/19/39
f 32/19/40 10/6/41 11/20/42
f 32/19/43 11/20/44 33/22/45
f 33/22/46 11/20/47 34/21/48
f 35/25/49 17/26/50 7/28/51
f 7/28/52 17/26/53 8/27/54
f 5/32/55 6/30/56 36/33/57
f 36/33/58 6/30/59 18/31/60
f 36/33/61 18/31/62 37/100/63
f 37/100/64 18/31/65 15/99/66
f 37/4/67 15/2/68 38/5/69
f 38/5/70 15/2/71 13/1/72
f 38/5/73 13/1/74 35/25/75
f 35/25/76 13/1/77 17/26/78
usemtl SM_SdscSG1
f 39/101/79 22/13/80 40/37/81
f 22/65/82 39/66/83 27/68/84
f 27/68/85 39/66/86 41/67/87
f 39/66/88 40/37/89 41/67/90
f 41/67/91 40/37/92 42/36/93
usemtl SM_SdscSG
f 43/35/94 26/15/95 42/36/96
f 42/36/97 26/15/98 27/18/99
usemtl SM_SdscSG1
f 41/102/100 42/36/101 27/18/102
f 44/55/103 29/52/104 45/103/105
f 14/69/106 16/70/107 13/1/108
f 13/1/109 16/70/110 17/26/111
f 15/71/112 18/72/113 14/69/114
f 14/69/115 18/72/116 16/70/117
f 25/74/118 48/75/119 23/73/120
f 23/73/121 48/75/122 47/76/123
usemtl SM_SdscSG
f 20/11/124 23/14/125 49/50/126
f 49/50/127 23/14/128 47/51/129
f 50/49/130 48/48/131 24/16/132
f 24/16/133 48/48/134 25/17/135
f 51/57/136 52/56/137 53/104/138
f 53/104/139 52/56/140 76/105/141
f 65/38/142 33/22/143 64/39/144
f 64/39/145 33/22/146 34/21/147
usemtl SM_SdscSG1
f 55/87/148 56/88/149 58/43/150
f 58/43/151 56/88/152 57/44/153
usemtl SM_SdscSG
f 59/42/154 60/106/155 58/43/156
f 58/43/157 60/106/158 55/107/159
f 77/108/160 61/45/161 56/109/162
f 56/109/163 61/45/164 57/44/165
f 62/34/166 43/35/167 40/37/168
f 40/37/169 43/35/170 42/36/171
usemtl SM_SdscSG1
f 63/40/172 46/110/173 28/47/174
f 45/78/175 46/77/176 52/81/177
f 46/77/178 64/80/179 52/81/180
usemtl SM_SdscSG
f 65/38/181 64/39/182 66/41/183
f 66/41/184 64/39/185 63/40/186
f 66/41/187 63/40/188 67/46/189
f 67/46/190 63/40/191 28/47/192
f 21/12/193 62/34/194 22/13/195
f 22/13/196 62/34/197 40/37/198
usemtl SM_SdscSG1
f 6/90/199 4/91/200 8/89/201
f 8/89/202 4/91/203 3/92/204
f 75/84/205 52/81/206 34/85/207
f 34/85/208 52/81/209 64/80/210
usemtl SM_SdscSG
f 59/42/211 58/43/212 61/45/213
f 61/45/214 58/43/215 57/44/216
f 67/46/217 28/47/218 50/49/219
f 50/49/220 28/47/221 48/48/222
f 49/50/223 47/51/224 68/53/225
f 68/53/226 47/51/227 29/52/228
f 68/53/229 29/52/230 69/54/231
f 69/54/232 29/52/233 44/55/234
f 69/54/235 44/55/236 51/57/237
f 51/57/238 44/55/239 52/56/240
usemtl SM_SdscSG1
f 19/93/241 70/64/242 10/6/243
f 10/6/244 70/64/245 11/20/246
f 12/62/247 70/64/248 9/94/249
f 9/94/250 70/64/251 19/93/252
usemtl SM_SdscSG
f 71/58/253 74/59/254 72/61/255
f 72/61/256 74/59/257 12/60/258
f 72/61/259 12/60/260 30/9/261
f 30/9/262 12/60/263 9/7/264
usemtl SM_SdscSG1
f 34/21/265 11/20/266 70/23/267
f 12/62/268 73/63/269 70/64/270
f 54/24/271 34/21/272 70/23/273
f 8/27/274 17/26/275 16/29/276
f 18/31/277 6/30/278 16/29/279
f 6/30/280 8/27/281 16/29/282
f 29/82/283 47/76/284 45/78/285
f 48/75/286 28/79/287 46/77/288
f 47/76/289 48/75/290 45/78/291
f 45/78/292 48/75/293 46/77/294
f 46/77/295 63/83/296 64/80/297
f 45/78/298 52/81/299 44/86/300
